<?xml version="1.0" encoding="utf-8"?>
<!-- Generator: Adobe Illustrator 25.4.1, SVG Export Plug-In . SVG Version: 6.00 Build 0)  -->
<svg version="1.1" id="Layer_1" xmlns="http://www.w3.org/2000/svg" xmlns:xlink="http://www.w3.org/1999/xlink" x="0px" y="0px"
	 viewBox="0 0 190.6 294" style="enable-background:new 0 0 190.6 294;" xml:space="preserve">
<g>
	<path d="M37.5,155.1c-0.7-0.4-1.3-0.3-1.8-0.3c-7.7,0-15.3,0-23,0c-0.5,0-1,0-1.4,0c-1.2-0.1-1.9-0.9-1.9-2.1c0-1.2,0.7-2,1.8-2.2
		c0.5-0.1,1.1-0.1,1.6-0.1c8.8,0,17.6,0,26.5,0c1.4,0,2.3-0.4,3-1.7c0.5-0.9,1.1-1.8,1.6-2.7c0.2-0.4,0.7-0.7,0.4-1.1
		c-0.3-0.4-0.8-0.2-1.2-0.2c-8.3,0-16.6,0-24.9,0c-0.5,0-1,0-1.4,0c-1.6-0.1-2.7-1.1-2.7-2.4c0-1.3,1-2.2,2.8-2.2
		c9.7,0,19.4,0,29.1,0c1.4,0,2.4-0.4,3.2-1.6c3.2-4.7,7-8.8,12.3-11.3c3.2-1.5,6.7-2.1,10.2-2.2c0.9,0,1.7,0.1,2.4,0.8
		c0.6,0.7,0.6,1.5,0.3,2.3c-0.4,0.9-1.1,1.4-2.1,1.4c-8.4,0-14.4,4.3-18.9,11c-2,2.9-3.7,6-5.7,8.8c-2.6,3.8-5.1,7.7-8.4,10.9
		c-3.8,3.6-8.2,5.4-13.3,5.5c-5.6,0.1-11.1,0-16.7,0c-0.7,0-1.4,0-2.1-0.5c-0.8-0.6-1.3-1.3-1-2.3c0.2-1,0.9-1.6,1.9-1.7
		c0.5-0.1,1.1-0.1,1.6-0.1c5.5,0,10.9,0,16.4,0C30.6,161.1,34.4,158.9,37.5,155.1z"/>
	<path d="M154.6,154.7c-0.5,2.4-0.9,4.7-1.4,7c-0.2,1.1-0.5,2.2-0.6,3.2c-0.2,0.9-0.6,1.4-1.5,1.4c-4.5,0-4.2,0.5-3.3-3.8
		c1-5.1,2.1-10.1,3-15.2c0.2-1.3,0.8-1.8,2.1-1.7c4,0.1,3.3-0.4,4.5,3.3c0.9,2.8,1.8,5.5,3,8.3c0.5-2.3,0.9-4.6,1.4-6.9
		c0.2-1.2,0.5-2.3,0.7-3.5c0.1-0.8,0.6-1.2,1.4-1.2c4.7,0,3.9-0.3,3.1,3.5c-1,5.2-2.1,10.4-3.1,15.6c-0.2,1.1-0.7,1.5-1.8,1.6
		c-3.2,0.1-3.3,0.1-4.3-2.9c-0.9-2.6-1.7-5.2-2.5-7.8C155.1,155.3,155.2,154.9,154.6,154.7z"/>
	<path d="M75.9,158c-3.8,0.1-3.2-0.5-3.9,3.3c-0.2,1.3-0.6,2.5-0.8,3.8c-0.1,0.8-0.6,1.1-1.4,1.2c-3.7,0.4-3.9,0.2-3.3-3.4
		c1-5.2,2.1-10.3,3.1-15.5c0.3-1.4,0.8-1.9,2.3-1.9c3.9,0.1,3.5-0.3,2.8,3.4c-0.3,1.3-0.5,2.6-0.8,3.9c-0.2,0.8,0.1,1.3,1,1.3
		c0,0,0.1,0,0.1,0c4.8,0.3,4.8,0.3,5.8-4.5c0.1-0.3,0.1-0.6,0.1-0.9c0.6-3.5,0.6-3.5,4.2-3.3c1,0.1,1.4,0.4,1.1,1.4
		c-0.6,2.8-1.1,5.6-1.7,8.5c-0.6,3.1-1.3,6.2-1.8,9.3c-0.2,1.1-0.7,1.5-1.8,1.5c-3.5,0.1-3.5,0.1-2.9-3.2c0.2-1.2,0.5-2.4,0.8-3.5
		c0.3-1.1,0.1-1.8-1.3-1.6C77,158.1,76.4,158,75.9,158z"/>
	<path d="M93.3,166.4c-4.8,0-8-3.8-7-8.5c0.4-2.1,0.7-4.2,1.5-6.3c1.7-4.5,5.8-6.9,10.3-6.1c4,0.8,6.4,4,5.8,8.1
		c-0.3,2.1-0.7,4.3-1.4,6.3C101,164,97.7,166.4,93.3,166.4z M98.7,153c0-2.1-0.9-3.3-2.4-3.7c-1.3-0.3-2.5,0.4-3.4,1.9
		c-0.1,0.2-0.3,0.5-0.4,0.8c-0.8,2.4-1.3,4.8-1.5,7.3c-0.1,1.6,0.6,2.8,1.9,3.2c1.3,0.4,2.7-0.2,3.6-1.6c0.1-0.2,0.2-0.3,0.3-0.5
		C98.1,157.9,98.2,155.2,98.7,153z"/>
	<path d="M180.1,155.6c1,0.1,2.6-0.5,3.4,0.3c0.8,0.9-0.2,2.3-0.3,3.5c-0.5,5.3-2.7,6-7.6,6.9c-1.1,0.2-2.2,0.1-3.3-0.1
		c-3.3-0.6-5.5-3.8-4.9-7.5c0.3-2.1,0.7-4.2,1.3-6.2c1.5-5.7,7.5-8.8,12.7-6.6c2.1,0.9,3.5,3.3,3.2,5.5c-0.1,0.5-0.2,1-0.8,1
		c-1.1,0.1-2.2,0.1-3.3,0c-0.7,0-0.7-0.6-0.8-1.2c-0.3-1.8-1.8-2.6-3.5-1.8c-1.4,0.6-2.1,1.8-2.5,3.2c-0.7,2.2-1.1,4.4-1.3,6.6
		c-0.2,2.7,1.1,3.7,3.7,3.2c1.1-0.2,2-1.4,1.9-2.5c0-0.7-0.6-0.5-1-0.5c-0.7-0.1-1.6,0.1-1.6-1.1c0-1.9,0.5-2.6,1.8-2.7
		c0.1,0,0.2,0,0.3,0C178.2,155.6,179,155.6,180.1,155.6z"/>
	<path d="M57.2,166.4c-1.6,0.1-3.1-0.3-4.6-1.1c-0.8-0.5-1.6-1.1-1.9-2c-0.9-2.2-0.2-3.3,2.1-3.3c1.2,0,2.5-0.3,3,1.6
		c0.3,1.1,1.8,1.1,2.9,0.9c1-0.2,1.7-0.7,1.8-1.7c0.2-1.2-0.6-1.8-1.5-2.2c-1.3-0.6-2.6-1.2-3.9-1.8c-1.9-1-3.6-2.4-3.4-4.9
		c0.1-2.6,1.4-4.4,3.8-5.5c2.5-1.2,5.1-1.4,7.7-0.4c1.8,0.7,3.2,2.5,3.2,4.2c0,1.1-0.3,1.9-1.6,1.8c-0.6,0-1.2,0-1.9,0
		c-0.9,0-1.5-0.2-1.7-1.3c-0.1-0.9-0.9-1.4-1.7-1.4c-0.9,0-1.9,0.3-2.3,1.2c-0.4,0.9-0.3,1.8,0.7,2.3c1.2,0.6,2.4,1.1,3.5,1.6
		c3.3,1.5,4.5,3.3,4.2,6.2c-0.3,2.8-2.3,4.9-5.6,5.6C59,166.3,58.1,166.4,57.2,166.4z"/>
	<path d="M123.8,166.1c-2.7,0-2.7,0-2.1-2.7c1.1-5.4,2.2-10.8,3.2-16.2c0.2-1.2,0.7-1.7,1.9-1.6c2.1,0.1,4.1,0,6.2,0
		c2.7,0,5.2,0.6,6.4,3.4c1,2.3,0,5.9-2.2,7.9c-1.8,1.7-4,2.3-6.5,2.3c-3.3,0-2.9-0.4-3.5,2.9c-0.1,0.5-0.2,1-0.3,1.5
		C126.4,166.1,126.4,166.1,123.8,166.1z M130.5,155.3c0.3,0,0.7,0,1,0c2-0.2,3.3-1.9,3.2-3.9c-0.1-1.6-0.8-2-3.3-2
		c-0.2,0-0.4,0-0.6,0c-0.8-0.1-1.3,0.3-1.4,1.1c-0.2,1-0.4,2-0.6,3C128.5,155.4,128.5,155.4,130.5,155.3z"/>
	<path d="M105.9,166.1c-0.2,0-0.4,0-0.6,0c-1.9,0-1.9,0-1.5-1.9c1.1-5.6,2.3-11.2,3.3-16.8c0.3-1.5,0.9-2,2.4-1.9
		c1.9,0.1,3.8,0,5.7,0c3.2,0,5.4,1.3,6.2,3.5c0.9,2.5-0.2,6.3-2.5,8c-2,1.6-4.3,2.1-6.9,2.1c-2.3,0-2.3,0-2.7,2.2
		c-0.1,0.7-0.3,1.4-0.4,2.1C108.5,166.1,108.5,166.1,105.9,166.1z M113.7,149.4c-0.8,0.1-1.8-0.3-2.1,1c-0.3,1.3-0.5,2.6-0.8,3.9
		c-0.1,0.6,0,1,0.7,1c1,0,2.1,0.1,3.1-0.3c1.4-0.6,2.5-2.4,2.2-4C116.5,149.8,115.7,149.4,113.7,149.4z"/>
	<path d="M26.9,175.6c0,4.1-3.2,7.3-7.3,7.4c-4.1,0-7.5-3.3-7.5-7.3c0-4.1,3.2-7.3,7.3-7.3C23.6,168.3,26.9,171.5,26.9,175.6z
		 M22.2,175.7c0.1-1.5-1.1-2.7-2.7-2.7c-1.5,0-2.7,1-2.8,2.5c-0.1,1.5,1,2.7,2.5,2.8C20.9,178.4,22.2,177.3,22.2,175.7z"/>
	<path d="M32.6,131.3c0,3.1-2.6,5.7-5.7,5.7c-3.2,0-5.8-2.7-5.7-5.8c0.1-3.1,2.8-5.8,5.9-5.7C30.1,125.6,32.6,128.2,32.6,131.3z"/>
	<path d="M142.4,166.3c-3.3,0-3.3,0-2.7-3c1-5.3,2.2-10.6,3.1-15.9c0.3-1.4,0.9-1.8,2.3-1.8c3.1,0.1,3.1,0,2.5,3
		c-1.1,5.3-2.2,10.6-3.2,15.9C144.2,165.9,143.6,166.6,142.4,166.3z"/>
	<path d="M44.1,131.3c0,2.2-1.8,4-4,4c-2.2,0-4-1.9-4-4c0-2.2,1.9-4,4.1-4C42.3,127.2,44.1,129.1,44.1,131.3z"/>
	<path d="M51.4,119.1c0,1.8-1.3,3.2-3,3.2c-1.9,0-3.4-1.4-3.4-3.1c0-1.7,1.5-3,3.4-3C50,116.1,51.4,117.5,51.4,119.1z"/>
	<path d="M69.2,113.7c0,1.5-1.1,2.6-2.6,2.6c-1.5,0-2.7-1.3-2.6-2.7c0-1.4,1.2-2.5,2.6-2.5C68.1,111,69.2,112.1,69.2,113.7z"/>
	<path d="M37.7,116.8c1.4,0,2.4,0.9,2.4,2.3c0,1.5-1.1,2.6-2.5,2.5c-1.3,0-2.3-1.1-2.4-2.4C35.2,117.9,36.3,116.8,37.7,116.8z"/>
</g>
</svg>
